# xmcd CD database file
#
# Track frame offsets:
#	187
#	42100
#	72690
#	101687
#	129750
#	155062
#	176822
#	225392
#
# Disc length: 3238 seconds
#
# Revision: 3
# Processed by: cddbd v1.5.1PL0 Copyright (c) Steve Scherf et al.
# Submitted via: CDex 1.51
#
DISCID=670ca408
DTITLE=キングフィルハーモニーオーケストラ - 機動戦士ガンダム コンサート・スペシャル・ライブ
DYEAR=1999
DGENRE=Soundtrack
TTITLE0=ガンダム・ヒットソング・メドレー
TTITLE1=第一楽章 Formula 91
TTITLE2=第二楽章 Sympathy
TTITLE3=第三楽章 Noble obligation
TTITLE4=第四楽章 Fortune
TTITLE5=第五楽章 Crying
TTITLE6=第六楽章 Battle
TTITLE7=ETERNAL WIND
EXTD=YEAR: 1999
EXTT0=
EXTT1=
EXTT2=
EXTT3=
EXTT4=
EXTT5=
EXTT6=
EXTT7=
PLAYORDER=
